<?xml version="1.0" encoding="utf-8"?>
<!DOCTYPE svg PUBLIC "-//W3C//DTD SVG 1.1//EN" "http://www.w3.org/Graphics/SVG/1.1/DTD/svg11.dtd">
<!-- Generated by geo2svg 2.8.1. https://d3js.org/d3-geo-projection/ -->
<svg version="1.1" xmlns="http://www.w3.org/2000/svg" xmlns:xlink="http://www.w3.org/1999/xlink" width="480" height="480" viewBox="0 0 480 480" fill="none" stroke="black">
  <path d="M119.917009,26.175173L119.935679,26.154515L119.939658,26.165885L119.965162,26.166526L119.95496,26.150672L119.924559,26.13786L119.908848,26.145387ZM119.99638,26.238109L120.014132,26.2285L119.965571,26.204799L119.967407,26.221294ZM120.479546,26.383036L120.481484,26.371186L120.506887,26.372787L120.481994,26.358695ZM121.966075,24.983084L121.925573,24.968512L121.885377,24.918868L121.851405,24.890042L121.830592,24.850488L121.818962,24.797321L121.821003,24.747677L121.836612,24.710685L121.838142,24.672891L121.852119,24.628052L121.884969,24.60339L121.86987,24.576166L121.873747,24.53469L121.841917,24.520277L121.840182,24.498018L121.860178,24.483605L121.820391,24.461505L121.791111,24.408179L121.78703,24.372467L121.770911,24.332592L121.774074,24.315297L121.71429,24.326667L121.663892,24.349247L121.648895,24.349407L121.63094,24.370545L121.621656,24.366702L121.63298,24.334994L121.596559,24.328108L121.606965,24.312574L121.560036,24.322663L121.522187,24.343001L121.49811,24.339158L121.451997,24.36462L121.429349,24.383036L121.373544,24.368143L121.364873,24.389122L121.328043,24.39825L121.328043,24.433961L121.317637,24.441488L121.320902,24.449335L121.329676,24.462947L121.35365,24.485687L121.357833,24.486648L121.377319,24.509708L121.379869,24.509708L121.385481,24.514192L121.389969,24.521879L121.392112,24.524281L121.392418,24.524281L121.4016,24.529245L121.399457,24.561113L121.401294,24.563355L121.409455,24.58065L121.409455,24.58081L121.406701,24.584654L121.406293,24.585134L121.403028,24.5917L121.427819,24.606113L121.459445,24.673212L121.479951,24.673852L121.536878,24.688425L121.543407,24.70572L121.59758,24.72766L121.589928,24.751841L121.591968,24.787552L121.625329,24.794919L121.625635,24.808531L121.689295,24.817339L121.687663,24.824385L121.732654,24.855772L121.761015,24.856733L121.785194,24.874189L121.781623,24.889402L121.811719,24.906537L121.831817,24.904936L121.852119,24.923672L121.839876,24.942248L121.84712,24.960344L121.88854,24.963227L121.902822,24.974437L121.96281,24.987728ZM123.47668,25.751761L123.493922,25.743914L123.459745,25.735586ZM120.456591,24.207202L120.504337,24.191188L120.53229,24.126971L120.549633,24.11384L120.612375,24.10263L120.625332,24.069L120.625128,24.030246L120.646552,24.033929L120.678688,24.014072L120.641553,24.008147L120.646858,23.963307L120.627576,23.952097L120.63686,23.937044L120.635024,23.89861L120.620129,23.865461L120.626046,23.84192L120.650735,23.812775L120.674505,23.819981L120.683891,23.801405L120.640329,23.786031L120.592584,23.790995L120.550755,23.801244L120.51107,23.800123L120.452,23.817259L120.433127,23.83023L120.370283,23.828629L120.308153,23.820301L120.255,23.834233L120.220314,23.866262L120.257755,23.899411L120.283974,23.95578L120.306928,23.972275L120.316416,23.999179L120.334168,24.013912L120.342125,24.060192L120.396808,24.117523L120.424659,24.183341L120.443941,24.188946ZM121.34304,24.223536L121.349672,24.200316L121.325799,24.196152L121.286215,24.177415L121.281318,24.135939L121.328452,24.11464L121.323249,24.086616L121.283257,24.054267L121.285705,24.039694L121.260098,23.992293L121.277952,23.965869L121.274891,23.907578L121.265301,23.872827L121.239796,23.84112L121.22837,23.78523L121.204702,23.772419L121.228778,23.744234L121.241123,23.709003L121.23541,23.661441L121.213169,23.600107L121.194602,23.600588L121.178789,23.583133L121.153386,23.586816L121.160323,23.569841L121.146244,23.554147L121.150733,23.528845L121.135532,23.515233L121.120433,23.520998L121.068505,23.518436L121.062078,23.499379L121.039022,23.474397L121.059018,23.461906L121.05157,23.450696L121.015251,23.435483L121.008416,23.462066L120.957508,23.469433L120.917516,23.475678L120.838961,23.471194L120.827025,23.483365L120.823148,23.510909L120.808559,23.536211L120.825392,23.586496L120.813864,23.600908L120.779586,23.601549L120.764283,23.612278L120.73082,23.610837L120.71868,23.629734L120.705009,23.617243L120.661243,23.610517L120.629107,23.635178L120.648286,23.6829L120.639002,23.710605L120.655938,23.753843L120.640329,23.786031L120.683891,23.801405L120.674505,23.819981L120.650735,23.812775L120.626046,23.84192L120.620129,23.865461L120.635024,23.89861L120.63686,23.937044L120.627576,23.952097L120.646858,23.963307L120.641553,24.008147L120.678688,24.014072L120.706335,24.005264L120.731738,24.008947L120.746021,23.998538L120.770608,24.009107L120.79295,24.032488L120.806927,24.064196L120.829269,24.071562L120.828555,24.094462L120.844878,24.124569L120.87222,24.116882L120.891501,24.098626L120.891093,24.115601L120.919863,24.107434L120.950061,24.127932L120.975259,24.116882L120.991889,24.120886L121.019842,24.158839L121.05259,24.154836L121.105641,24.197273L121.136348,24.196312L121.167669,24.225458L121.180727,24.212326L121.219699,24.229301L121.23796,24.219693L121.255099,24.243233L121.280196,24.229782L121.298866,24.235707ZM120.081057,23.524201L120.071569,23.494414L120.029741,23.479682L120.024538,23.460304L119.996891,23.465749L120.01607,23.484165ZM120.640329,23.786031L120.655938,23.753843L120.639002,23.710605L120.648286,23.6829L120.629107,23.635178L120.661243,23.610517L120.705009,23.617243L120.71868,23.629734L120.73082,23.610837L120.736125,23.570481L120.670731,23.578488L120.650837,23.572403L120.645634,23.593542L120.609825,23.582652L120.576668,23.583613L120.536983,23.594663L120.50352,23.635338L120.444247,23.630374L120.429964,23.618364L120.402623,23.627011L120.366508,23.607794L120.356714,23.594022L120.333658,23.59178L120.333147,23.579129L120.307541,23.574645L120.271936,23.530766L120.256123,23.54614L120.242044,23.541496L120.247043,23.516194L120.223068,23.504343L120.180934,23.509788L120.145839,23.520838L120.13829,23.631815L120.123497,23.621887L120.124007,23.643185L120.169202,23.758967L120.156755,23.78459L120.207663,23.837276L120.220314,23.866262L120.255,23.834233L120.308153,23.820301L120.370283,23.828629L120.433127,23.83023L120.452,23.817259L120.51107,23.800123L120.550755,23.801244L120.592584,23.790995ZM121.803455,25.136179L121.790193,25.112318L121.772951,25.120165L121.756016,25.108475L121.759077,25.084454L121.775706,25.070041L121.762341,25.056909L121.732143,25.052746L121.655731,25.093421L121.642978,25.127852L121.626757,25.139542L121.677665,25.155876L121.708985,25.175574L121.709291,25.175894L121.709699,25.176535L121.707251,25.165965L121.748467,25.156197L121.764892,25.163723ZM121.570952,25.197193L121.583807,25.19463L121.578808,25.165645L121.604109,25.136179L121.595641,25.113279L121.626247,25.096144L121.616147,25.063956L121.624921,25.037692L121.664096,25.02312L121.63094,25.024721L121.597477,25.014792L121.60013,24.976999L121.619616,24.96723L121.597069,24.960504L121.561261,24.964668L121.553915,24.984365L121.531675,24.990451L121.533817,25.003582L121.509128,25.021358L121.492601,25.009508L121.483624,25.03529L121.501375,25.04602L121.507088,25.069881L121.489133,25.096784L121.457302,25.107033L121.458833,25.122887L121.502599,25.173332L121.542795,25.189026L121.555037,25.208403ZM121.709699,25.176535L121.709291,25.175894L121.708985,25.175574L121.677665,25.155876L121.626757,25.139542L121.642978,25.127852L121.655731,25.093421L121.732143,25.052746L121.762341,25.056909L121.775706,25.070041L121.759077,25.084454L121.756016,25.108475L121.772951,25.120165L121.790193,25.112318L121.803455,25.136179L121.89211,25.119685L121.926797,25.128813L121.915371,25.078048L121.931694,25.063155L121.929552,25.039774L121.947099,25.021038L121.973624,25.026643L121.997599,25.019436L122.005148,25.001501L121.966075,24.983084L121.96281,24.987728L121.902822,24.974437L121.88854,24.963227L121.84712,24.960344L121.839876,24.942248L121.852119,24.923672L121.831817,24.904936L121.811719,24.906537L121.781623,24.889402L121.785194,24.874189L121.761015,24.856733L121.732654,24.855772L121.687663,24.824385L121.689295,24.817339L121.625635,24.808531L121.625329,24.794919L121.591968,24.787552L121.589928,24.751841L121.59758,24.72766L121.543407,24.70572L121.536878,24.688425L121.479951,24.673852L121.474238,24.696112L121.450365,24.70556L121.423432,24.763051L121.449549,24.785951L121.415678,24.835434L121.393642,24.843922L121.377931,24.834474L121.336919,24.848246L121.357833,24.85321L121.342122,24.892605L121.32029,24.900131L121.315801,24.938405L121.328146,24.948814L121.327125,24.97764L121.368749,24.976839L121.384256,24.995735L121.403232,24.999259L121.391092,25.061553L121.354875,25.065077L121.350182,25.081091L121.302845,25.096784L121.283359,25.117763L121.353446,25.131535L121.389765,25.147709L121.418841,25.177335L121.404252,25.1831L121.437307,25.219612L121.452712,25.252762L121.480971,25.270858L121.541163,25.294558L121.577686,25.298882L121.623084,25.2739L121.633899,25.240591L121.670626,25.202798L121.696029,25.203759L121.685827,25.189506ZM121.570952,25.197193L121.555037,25.208403L121.542795,25.189026L121.502599,25.173332L121.458833,25.122887L121.457302,25.107033L121.489133,25.096784L121.507088,25.069881L121.501375,25.04602L121.483624,25.03529L121.492601,25.009508L121.509128,25.021358L121.533817,25.003582L121.531675,24.990451L121.553915,24.984365L121.561261,24.964668L121.597069,24.960504L121.619616,24.96723L121.60013,24.976999L121.597477,25.014792L121.63094,25.024721L121.664096,25.02312L121.624921,25.037692L121.616147,25.063956L121.626247,25.096144L121.595641,25.113279L121.604109,25.136179L121.578808,25.165645L121.583807,25.19463ZM121.451997,24.36462L121.435572,24.347325L121.43496,24.322503L121.423228,24.308251L121.380482,24.279425L121.385072,24.255084L121.35263,24.243874L121.34304,24.223536L121.298866,24.235707L121.280196,24.229782L121.255099,24.243233L121.23796,24.219693L121.219699,24.229301L121.180727,24.212326L121.167669,24.225458L121.136348,24.196312L121.105641,24.197273L121.05259,24.154836L121.019842,24.158839L120.991889,24.120886L120.975259,24.116882L120.950061,24.127932L120.919863,24.107434L120.891093,24.115601L120.891501,24.098626L120.87222,24.116882L120.844878,24.124569L120.828555,24.094462L120.829269,24.071562L120.806927,24.064196L120.79295,24.032488L120.770608,24.009107L120.746021,23.998538L120.731738,24.008947L120.706335,24.005264L120.678688,24.014072L120.646552,24.033929L120.625128,24.030246L120.625332,24.069L120.612375,24.10263L120.549633,24.11384L120.53229,24.126971L120.504337,24.191188L120.456591,24.207202L120.476281,24.224337L120.52372,24.315777L120.559223,24.349727L120.562488,24.361257L120.621863,24.440367L120.639615,24.427716L120.691951,24.368303L120.730412,24.351809L120.758468,24.328588L120.805499,24.315937L120.833554,24.290475L120.90456,24.292236L120.922413,24.303606L120.917006,24.335795L120.935676,24.342841L120.96016,24.334994L121.004743,24.331951L121.035247,24.297201L121.081564,24.324105L121.086563,24.317539L121.121556,24.33067L121.140939,24.359656L121.167975,24.360777L121.17328,24.373108L121.20715,24.397929L121.215822,24.379513L121.231329,24.383677L121.243877,24.420029L121.258976,24.437965L121.27683,24.429317L121.283155,24.430278L121.293357,24.431239L121.293867,24.432039L121.317637,24.441488L121.328043,24.433961L121.328043,24.39825L121.364873,24.389122L121.373544,24.368143L121.429349,24.383036ZM120.653489,23.224577L120.636554,23.190147L120.641145,23.18294L120.601153,23.144186L120.574832,23.0915L120.503724,23.028725L120.480056,23.002942L120.460876,23.003903L120.445165,22.979561L120.416498,22.916306L120.381913,22.92111L120.354572,22.890043L120.324068,22.900292L120.277955,22.904455L120.256429,22.894046L120.192054,22.92127L120.174711,22.911662L120.171956,22.949775L120.138188,22.996857L120.087076,23.032728L120.057898,23.043137L120.038923,23.068119L120.028517,23.066518L120.03525,23.10255L120.052083,23.12593L120.063509,23.17093L120.077486,23.200396L120.080649,23.237548L120.08932,23.249559L120.09636,23.299043L120.110847,23.310413L120.11809,23.340199L120.166243,23.308491L120.17869,23.291676L120.188382,23.301285L120.220824,23.296L120.238065,23.327067L120.286116,23.350288L120.292952,23.37543L120.333147,23.385839L120.349471,23.401373L120.43833,23.413383L120.473221,23.39817L120.504847,23.368864L120.503622,23.351088L120.540043,23.327868L120.522598,23.311854L120.52219,23.2739L120.53229,23.255164L120.519027,23.23931L120.554836,23.217531L120.578199,23.214808L120.59238,23.23979L120.609723,23.222655ZM121.283359,25.117763L121.302845,25.096784L121.350182,25.081091L121.354875,25.065077L121.391092,25.061553L121.403232,24.999259L121.384256,24.995735L121.368749,24.976839L121.327125,24.97764L121.328146,24.948814L121.315801,24.938405L121.32029,24.900131L121.342122,24.892605L121.357833,24.85321L121.336919,24.848246L121.377931,24.834474L121.393642,24.843922L121.415678,24.835434L121.449549,24.785951L121.423432,24.763051L121.450365,24.70556L121.474238,24.696112L121.479951,24.673852L121.459445,24.673212L121.427819,24.606113L121.403028,24.5917L121.399457,24.590259L121.365281,24.601308L121.36324,24.622927L121.363444,24.623728L121.365383,24.629974L121.360792,24.633817L121.358343,24.633497L121.352426,24.666966L121.336001,24.683301L121.318148,24.698034L121.302845,24.693229L121.302845,24.70524L121.303151,24.707802L121.303253,24.708443L121.301518,24.742713L121.304477,24.757126L121.287542,24.768656L121.271321,24.775862L121.270606,24.778424L121.260813,24.789154L121.25867,24.793157L121.233063,24.803887L121.221229,24.801645L121.209599,24.809492L121.208272,24.80741L121.203579,24.809331L121.19654,24.817659L121.17583,24.831111L121.172872,24.833833L121.172361,24.833993L121.160221,24.837356L121.155018,24.849847L121.159099,24.858014L121.160323,24.860897L121.156752,24.873708L121.156548,24.873868L121.156344,24.874189L121.157875,24.877231L121.156854,24.878672L121.148591,24.881235L121.139817,24.882196L121.135532,24.878352L121.132574,24.879793L121.132064,24.879793L121.117067,24.881875L121.114312,24.882516L121.112272,24.883637L121.110333,24.889722L121.110231,24.894526L121.08993,24.894847L121.086359,24.896768L121.086359,24.896929L121.083706,24.89869L121.057997,24.905416L121.060446,24.918708L121.042898,24.94401L121.041776,24.94385L121.040552,24.943209L121.038716,24.945772L121.037491,24.946252L121.027596,24.943369L121.02229,24.941288L121.016985,24.941768L121.013823,24.942569L120.997704,24.940647L120.990562,24.935523L120.988012,24.938565L121.009844,24.975077L121.028616,25.020557L121.051978,25.043457L121.090032,25.062995L121.157161,25.084454L121.212047,25.109916L121.259792,25.123688ZM121.010048,24.643906L121.010252,24.643906L121.015149,24.640863L121.042694,24.627251L121.049122,24.618924L121.051468,24.617643L121.063098,24.620525L121.066567,24.617162L121.074933,24.612358L121.075035,24.612038L121.076055,24.608515L121.075341,24.604671L121.082074,24.597305L121.082584,24.589458L121.076973,24.582092L121.072994,24.573284L121.072586,24.572003L121.068199,24.562234L121.063302,24.55807L121.058814,24.560633L121.06065,24.556629L121.0733,24.549583L121.077891,24.534049L121.066975,24.523L121.072178,24.501861L121.071872,24.499459L121.088705,24.498978L121.121454,24.508587L121.149305,24.506985L121.169913,24.503622L121.217556,24.514032L121.221025,24.496736L121.222555,24.495135L121.233471,24.487448L121.234695,24.487448L121.244489,24.470954L121.262649,24.4551L121.258976,24.440687L121.258976,24.437965L121.243877,24.420029L121.231329,24.383677L121.215822,24.379513L121.20715,24.397929L121.17328,24.373108L121.167975,24.360777L121.140939,24.359656L121.121556,24.33067L121.086563,24.317539L121.081564,24.324105L121.035247,24.297201L121.004743,24.331951L120.96016,24.334994L120.935676,24.342841L120.917006,24.335795L120.922413,24.303606L120.90456,24.292236L120.833554,24.290475L120.805499,24.315937L120.758468,24.328588L120.730412,24.351809L120.691951,24.368303L120.639615,24.427716L120.621863,24.440367L120.665426,24.483605L120.684707,24.521398L120.715823,24.600988L120.755917,24.631415L120.757651,24.641504L120.788563,24.666966L120.823046,24.672731L120.856202,24.702517L120.874566,24.738389L120.892113,24.732944L120.892623,24.732784L120.892725,24.732784L120.912925,24.729741L120.913844,24.71725L120.919863,24.71693L120.953121,24.706201L120.961181,24.709404L120.973015,24.702517L120.973933,24.698354L120.969138,24.684422L120.977096,24.673692L120.982911,24.670169L120.985665,24.665685L120.989032,24.662963L121.000458,24.654795L121.008212,24.655916L121.010864,24.654635L121.010762,24.653835L121.01066,24.653354L121.009232,24.651593L121.008926,24.647429ZM120.447614,23.518115L120.463835,23.499379L120.473527,23.506905L120.500154,23.490731L120.509233,23.474877L120.494951,23.452778L120.46863,23.461586L120.439554,23.439486L120.42925,23.461105L120.394155,23.462546L120.38936,23.498578ZM120.73082,23.610837L120.764283,23.612278L120.779586,23.601549L120.813864,23.600908L120.825392,23.586496L120.808559,23.536211L120.823148,23.510909L120.827025,23.483365L120.838961,23.471194L120.917516,23.475678L120.957508,23.469433L120.912721,23.458543L120.887114,23.435162L120.849163,23.419469L120.82529,23.371586L120.804682,23.367263L120.783258,23.342281L120.758059,23.344202L120.730616,23.305608L120.712151,23.308651L120.6995,23.28447L120.646756,23.297441L120.638492,23.268776L120.653489,23.224577L120.609723,23.222655L120.59238,23.23979L120.578199,23.214808L120.554836,23.217531L120.519027,23.23931L120.53229,23.255164L120.52219,23.2739L120.522598,23.311854L120.540043,23.327868L120.503622,23.351088L120.504847,23.368864L120.473221,23.39817L120.43833,23.413383L120.349471,23.401373L120.333147,23.385839L120.292952,23.37543L120.286116,23.350288L120.238065,23.327067L120.220824,23.296L120.188382,23.301285L120.17869,23.291676L120.166243,23.308491L120.11809,23.340199L120.131659,23.384718L120.157368,23.384878L120.145533,23.428597L120.154613,23.447813L120.144105,23.470073L120.157878,23.495055L120.133597,23.488169L120.119416,23.495535L120.118906,23.515073L120.145839,23.520838L120.180934,23.509788L120.223068,23.504343L120.247043,23.516194L120.242044,23.541496L120.256123,23.54614L120.271936,23.530766L120.307541,23.574645L120.333147,23.579129L120.333658,23.59178L120.356714,23.594022L120.366508,23.607794L120.402623,23.627011L120.429964,23.618364L120.444247,23.630374L120.50352,23.635338L120.536983,23.594663L120.576668,23.583613L120.609825,23.582652L120.645634,23.593542L120.650837,23.572403L120.670731,23.578488L120.736125,23.570481ZM120.447614,23.518115L120.38936,23.498578L120.394155,23.462546L120.42925,23.461105L120.439554,23.439486L120.46863,23.461586L120.494951,23.452778L120.509233,23.474877L120.500154,23.490731L120.473527,23.506905L120.463835,23.499379ZM118.248885,24.456381L118.269187,24.445972L118.265106,24.425314L118.225931,24.404976L118.213484,24.40978L118.230522,24.452057ZM118.411301,24.532128L118.450068,24.510989L118.472614,24.441488L118.455985,24.417787L118.426195,24.406737L118.42742,24.423872L118.385796,24.435082L118.353863,24.423072L118.334276,24.391043L118.319993,24.385759L118.278165,24.412983L118.290917,24.418908L118.302139,24.446132L118.286224,24.474797L118.292754,24.48985L118.318157,24.493213L118.331317,24.479121L118.363147,24.471754L118.385694,24.493534L118.384061,24.508106ZM121.015251,23.435483L121.029228,23.422832L121.026677,23.406017L121.001172,23.391764L121.007702,23.384718L120.987094,23.358775L121.04902,23.324665L121.02831,23.297121L120.986073,23.280306L120.97026,23.280626L120.93792,23.244915L120.915476,23.237548L120.906396,23.196713L120.912415,23.186784L120.885584,23.144667L120.889155,23.100468L120.869363,23.059952L120.879463,23.03465L120.863446,23.032248L120.860691,23.008067L120.820904,22.960985L120.821924,22.935042L120.838859,22.884598L120.864976,22.872267L120.864568,22.843121L120.822944,22.865701L120.778667,22.835275L120.742655,22.873548L120.708274,22.881715L120.67675,22.857214L120.660937,22.859616L120.645022,22.885238L120.605846,22.873228L120.554224,22.828869L120.509948,22.828549L120.476281,22.838157L120.468732,22.83063L120.453735,22.76145L120.455775,22.718532L120.436595,22.665045L120.433637,22.617643L120.445777,22.598907L120.442717,22.562394L120.422823,22.518516L120.424455,22.468712L120.401909,22.473836L120.33376,22.521398L120.312437,22.514833L120.293462,22.538373L120.321823,22.527804L120.302848,22.55775L120.263774,22.601949L120.263366,22.624049L120.249899,22.650792L120.264488,22.675294L120.256531,22.718372L120.206031,22.820221L120.174711,22.911662L120.192054,22.92127L120.256429,22.894046L120.277955,22.904455L120.324068,22.900292L120.354572,22.890043L120.381913,22.92111L120.416498,22.916306L120.445165,22.979561L120.460876,23.003903L120.480056,23.002942L120.503724,23.028725L120.574832,23.0915L120.601153,23.144186L120.641145,23.18294L120.636554,23.190147L120.653489,23.224577L120.638492,23.268776L120.646756,23.297441L120.6995,23.28447L120.712151,23.308651L120.730616,23.305608L120.758059,23.344202L120.783258,23.342281L120.804682,23.367263L120.82529,23.371586L120.849163,23.419469L120.887114,23.435162L120.912721,23.458543L120.957508,23.469433L121.008416,23.462066ZM121.50464,22.084854L121.513413,22.08037L121.566464,22.084374L121.575849,22.060032L121.567994,22.040815L121.596763,22.025122L121.593091,22.001741L121.570238,22.002222L121.562281,22.017275L121.538714,22.024321L121.510659,22.047541ZM121.491581,22.677536L121.510047,22.677055L121.495254,22.632536L121.473524,22.646468L121.46577,22.676415ZM121.49607,23.434842L121.478216,23.395447L121.461995,23.312494L121.446998,23.308811L121.429757,23.281427L121.414862,23.234986L121.420371,23.226339L121.398335,23.208083L121.407619,23.162282L121.399763,23.135058L121.412516,23.122407L121.38293,23.095503L121.367321,23.096464L121.355079,23.07965L121.337225,23.020077L121.295193,22.954579L121.284277,22.949615L121.268668,22.911021L121.232043,22.8641L121.209089,22.863139L121.186236,22.832872L121.200927,22.798762L121.181441,22.782908L121.176952,22.760168L121.128085,22.719333L121.08136,22.698194L121.039328,22.670329L121.02229,22.649191L121.00913,22.588978L120.985563,22.569441L120.959344,22.504744L120.946388,22.456862L120.894868,22.334674L120.891909,22.277504L120.896296,22.246436L120.86671,22.229782L120.815191,22.263251L120.799684,22.257166L120.793358,22.285671L120.778157,22.308571L120.796827,22.31834L120.785095,22.345564L120.767955,22.347325L120.743471,22.367183L120.753469,22.405136L120.789686,22.417627L120.776423,22.449015L120.751632,22.458463L120.750816,22.479121L120.763875,22.491132L120.739492,22.551505L120.745715,22.588337L120.761324,22.629974L120.786319,22.662963L120.786727,22.692749L120.836819,22.697073L120.848653,22.71693L120.883544,22.717091L120.894766,22.737589L120.893542,22.766734L120.903336,22.799883L120.868649,22.816858L120.864568,22.843121L120.864976,22.872267L120.838859,22.884598L120.821924,22.935042L120.820904,22.960985L120.860691,23.008067L120.863446,23.032248L120.879463,23.03465L120.869363,23.059952L120.889155,23.100468L120.885584,23.144667L120.912415,23.186784L120.906396,23.196713L120.915476,23.237548L120.93792,23.244915L120.97026,23.280626L120.986073,23.280306L121.02831,23.297121L121.056365,23.290235L121.079319,23.232584L121.129411,23.223296L121.139817,23.201517L121.175626,23.210164L121.189501,23.203759L121.211945,23.144186L121.249386,23.131375L121.272341,23.097906L121.316005,23.110397L121.327227,23.152193L121.317535,23.164364L121.334981,23.177976L121.359466,23.252762L121.377931,23.269577L121.376299,23.29584L121.422208,23.354932L121.399967,23.385198L121.419555,23.419469L121.44608,23.44349ZM121.774074,24.315297L121.748161,24.279906L121.74408,24.261329L121.706128,24.225618L121.67389,24.207522L121.658485,24.171811L121.66379,24.134498L121.619106,24.089658L121.616453,24.061473L121.647875,24.008947L121.628287,23.969392L121.615841,23.973236L121.606863,23.952738L121.611862,23.933361L121.598192,23.856974L121.576563,23.810853L121.573095,23.76233L121.549324,23.711726L121.553405,23.698274L121.531267,23.626531L121.530042,23.597225L121.511373,23.551425L121.503619,23.517475L121.513923,23.487208L121.49607,23.434842L121.44608,23.44349L121.419555,23.419469L121.399967,23.385198L121.422208,23.354932L121.376299,23.29584L121.377931,23.269577L121.359466,23.252762L121.334981,23.177976L121.317535,23.164364L121.327227,23.152193L121.316005,23.110397L121.272341,23.097906L121.249386,23.131375L121.211945,23.144186L121.189501,23.203759L121.175626,23.210164L121.139817,23.201517L121.129411,23.223296L121.079319,23.232584L121.056365,23.290235L121.02831,23.297121L121.04902,23.324665L120.987094,23.358775L121.007702,23.384718L121.001172,23.391764L121.026677,23.406017L121.029228,23.422832L121.015251,23.435483L121.05157,23.450696L121.059018,23.461906L121.039022,23.474397L121.062078,23.499379L121.068505,23.518436L121.120433,23.520998L121.135532,23.515233L121.150733,23.528845L121.146244,23.554147L121.160323,23.569841L121.153386,23.586816L121.178789,23.583133L121.194602,23.600588L121.213169,23.600107L121.23541,23.661441L121.241123,23.709003L121.228778,23.744234L121.204702,23.772419L121.22837,23.78523L121.239796,23.84112L121.265301,23.872827L121.274891,23.907578L121.277952,23.965869L121.260098,23.992293L121.285705,24.039694L121.283257,24.054267L121.323249,24.086616L121.328452,24.11464L121.281318,24.135939L121.286215,24.177415L121.325799,24.196152L121.349672,24.200316L121.34304,24.223536L121.35263,24.243874L121.385072,24.255084L121.380482,24.279425L121.423228,24.308251L121.43496,24.322503L121.435572,24.347325L121.451997,24.36462L121.49811,24.339158L121.522187,24.343001L121.560036,24.322663L121.606965,24.312574L121.596559,24.328108L121.63298,24.334994L121.621656,24.366702L121.63094,24.370545L121.648895,24.349407L121.663892,24.349247L121.71429,24.326667ZM119.440271,23.221374L119.442924,23.200396L119.418541,23.195752L119.414766,23.217371ZM119.493729,23.397209L119.508012,23.390643L119.513827,23.35349L119.486282,23.356053L119.494546,23.365341ZM119.584323,23.676495L119.597892,23.674573L119.610236,23.64815L119.597585,23.641264L119.613195,23.602029L119.624417,23.608115L119.624519,23.58041L119.651248,23.609876L119.669305,23.601709L119.693586,23.555108L119.646657,23.560553L119.605645,23.528685L119.606257,23.507866L119.571877,23.508667L119.567286,23.525802L119.595851,23.526603L119.592178,23.552706L119.572999,23.5463L119.579528,23.563435L119.559736,23.561994L119.564021,23.585855L119.582895,23.590819L119.597279,23.56904L119.609624,23.610357L119.597483,23.615641L119.593811,23.641584L119.571366,23.662402L119.554431,23.657438L119.540148,23.634057L119.517704,23.626851L119.523111,23.601709L119.512297,23.592261L119.515052,23.564076L119.493525,23.570481L119.504442,23.587296L119.489853,23.595143L119.508624,23.613239L119.499239,23.620125L119.514337,23.655676L119.54025,23.640463L119.555145,23.668488ZM119.612378,23.755925L119.62309,23.742793L119.595851,23.737669ZM120.935472,24.712606L120.919863,24.71693L120.913844,24.71725L120.912925,24.729741L120.892725,24.732784L120.892623,24.732784L120.892113,24.732944L120.874566,24.738389L120.897724,24.764652L120.892113,24.791876L120.902825,24.824064L120.92527,24.854811L120.955264,24.834313L121.000356,24.821983L121.02127,24.801645L121.032799,24.76209L121.020862,24.756485L120.995969,24.780026L120.946184,24.745275ZM121.038716,24.945772L121.040552,24.943209L121.041776,24.94385L121.042898,24.94401L121.060446,24.918708L121.057997,24.905416L121.083706,24.89869L121.086359,24.896929L121.086359,24.896768L121.08993,24.894847L121.110231,24.894526L121.110333,24.889722L121.112272,24.883637L121.114312,24.882516L121.117067,24.881875L121.132064,24.879793L121.132574,24.879793L121.135532,24.878352L121.139817,24.882196L121.148591,24.881235L121.156854,24.878672L121.157875,24.877231L121.156344,24.874189L121.156548,24.873868L121.156752,24.873708L121.160323,24.860897L121.159099,24.858014L121.155018,24.849847L121.160221,24.837356L121.172361,24.833993L121.172872,24.833833L121.17583,24.831111L121.19654,24.817659L121.203579,24.809331L121.208272,24.80741L121.209599,24.809492L121.221229,24.801645L121.233063,24.803887L121.25867,24.793157L121.260813,24.789154L121.270606,24.778424L121.271321,24.775862L121.287542,24.768656L121.304477,24.757126L121.301518,24.742713L121.303253,24.708443L121.303151,24.707802L121.302845,24.70524L121.302845,24.693229L121.318148,24.698034L121.336001,24.683301L121.352426,24.666966L121.358343,24.633497L121.360792,24.633817L121.365383,24.629974L121.363444,24.623728L121.36324,24.622927L121.365281,24.601308L121.399457,24.590259L121.406293,24.585134L121.406701,24.584654L121.409455,24.58081L121.409455,24.58065L121.401294,24.563355L121.399457,24.561113L121.4016,24.529245L121.392418,24.524281L121.392112,24.524281L121.389969,24.521879L121.385481,24.514192L121.379869,24.509708L121.377319,24.509708L121.357833,24.486648L121.35365,24.485687L121.329676,24.462947L121.320902,24.449335L121.317637,24.441488L121.293867,24.432039L121.293357,24.431239L121.283155,24.430278L121.27683,24.429317L121.258976,24.440687L121.262649,24.4551L121.244489,24.470954L121.234695,24.487448L121.233471,24.487448L121.222555,24.495135L121.221025,24.496736L121.217556,24.514032L121.169913,24.503622L121.149305,24.506985L121.121454,24.508587L121.088705,24.498978L121.071872,24.499459L121.072178,24.501861L121.066975,24.523L121.077891,24.534049L121.0733,24.549583L121.06065,24.556629L121.058814,24.560633L121.063302,24.55807L121.068199,24.562234L121.072586,24.572003L121.072994,24.573284L121.076973,24.582092L121.082584,24.589458L121.082074,24.597305L121.075341,24.604671L121.076055,24.608515L121.075035,24.612038L121.074933,24.612358L121.066567,24.617162L121.063098,24.620525L121.051468,24.617643L121.049122,24.618924L121.042694,24.627251L121.015149,24.640863L121.010252,24.643906L121.010048,24.643906L121.008926,24.647429L121.009232,24.651593L121.01066,24.653354L121.010762,24.653835L121.010864,24.654635L121.008212,24.655916L121.000458,24.654795L120.989032,24.662963L120.985665,24.665685L120.982911,24.670169L120.977096,24.673692L120.969138,24.684422L120.973933,24.698354L120.973015,24.702517L120.961181,24.709404L120.953121,24.706201L120.935472,24.712606L120.946184,24.745275L120.995969,24.780026L121.020862,24.756485L121.032799,24.76209L121.02127,24.801645L121.000356,24.821983L120.955264,24.834313L120.92527,24.854811L120.939246,24.867142L120.969648,24.928476L120.988012,24.938565L120.990562,24.935523L120.997704,24.940647L121.013823,24.942569L121.016985,24.941768L121.02229,24.941288L121.027596,24.943369L121.037491,24.946252ZM120.379668,22.355973L120.387014,22.34172L120.354674,22.323304L120.360897,22.345884ZM120.864568,22.843121L120.868649,22.816858L120.903336,22.799883L120.893542,22.766734L120.894766,22.737589L120.883544,22.717091L120.848653,22.71693L120.836819,22.697073L120.786727,22.692749L120.786319,22.662963L120.761324,22.629974L120.745715,22.588337L120.739492,22.551505L120.763875,22.491132L120.750816,22.479121L120.751632,22.458463L120.776423,22.449015L120.789686,22.417627L120.753469,22.405136L120.743471,22.367183L120.767955,22.347325L120.785095,22.345564L120.796827,22.31834L120.778157,22.308571L120.793358,22.285671L120.799684,22.257166L120.815191,22.263251L120.86671,22.229782L120.896296,22.246436L120.890685,22.195351L120.893644,22.049783L120.901091,22.033289L120.87579,21.998859L120.846102,21.986207L120.842328,21.950016L120.867119,21.902774L120.851101,21.896368L120.846102,21.913664L120.82223,21.934322L120.753163,21.9553L120.739696,21.919429L120.71062,21.934162L120.713579,21.980603L120.685217,22.023841L120.705723,22.070762L120.699296,22.082772L120.716844,22.093182L120.672057,22.233305L120.649306,22.255725L120.652061,22.268216L120.636146,22.312735L120.585544,22.369425L120.549633,22.392485L120.45853,22.439406L120.424455,22.468712L120.422823,22.518516L120.442717,22.562394L120.445777,22.598907L120.433637,22.617643L120.436595,22.665045L120.455775,22.718532L120.453735,22.76145L120.468732,22.83063L120.476281,22.838157L120.509948,22.828549L120.554224,22.828869L120.605846,22.873228L120.645022,22.885238L120.660937,22.859616L120.67675,22.857214L120.708274,22.881715L120.742655,22.873548L120.778667,22.835275L120.822944,22.865701Z"></path>
</svg>
